<svg xmlns="http://www.w3.org/2000/svg" viewBox="0 0 512 512">
  <rect width="512" height="512" rx="112" fill="#0f766e"/>
  <rect x="86" y="92" width="340" height="328" rx="42" fill="#ffffff"/>
  <rect x="122" y="142" width="268" height="32" rx="16" fill="#99f6e4"/>
  <rect x="122" y="206" width="170" height="28" rx="14" fill="#cbd5e1"/>
  <rect x="122" y="262" width="212" height="28" rx="14" fill="#cbd5e1"/>
  <path d="M120 346h18v-42h12v42h10v-42h22v42h14v-42h10v42h24v-42h12v42h14v-42h18v42h12v-42h26v42h12v-42h16v42h28" fill="none" stroke="#0f172a" stroke-width="12"/>
  <circle cx="361" cy="222" r="58" fill="#f59e0b"/>
  <path d="m333 222 19 20 38-44" fill="none" stroke="#fff" stroke-linecap="round" stroke-linejoin="round" stroke-width="16"/>
</svg>
